<?xml version="1.0" encoding="UTF-8" standalone="no"?>
<svg
   xmlns:dc="http://purl.org/dc/elements/1.1/"
   xmlns:cc="http://creativecommons.org/ns#"
   xmlns:rdf="http://www.w3.org/1999/02/22-rdf-syntax-ns#"
   xmlns:svg="http://www.w3.org/2000/svg"
   xmlns="http://www.w3.org/2000/svg"
   xmlns:sodipodi="http://sodipodi.sourceforge.net/DTD/sodipodi-0.dtd"
   xmlns:inkscape="http://www.inkscape.org/namespaces/inkscape"
   viewBox="0 0 1440 900"
   version="1.1"
   id="svg4"
   sodipodi:docname="bg-3.svg"
   width="1440"
   height="900"
   inkscape:version="1.0.2 (e86c870879, 2021-01-15, custom)">
  <metadata
     id="metadata10">
    <rdf:RDF>
      <cc:Work
         rdf:about="">
        <dc:format>image/svg+xml</dc:format>
        <dc:type
           rdf:resource="http://purl.org/dc/dcmitype/StillImage" />
        <dc:title></dc:title>
      </cc:Work>
    </rdf:RDF>
  </metadata>
  <defs
     id="defs8" />
  <sodipodi:namedview
     pagecolor="#ffffff"
     bordercolor="#666666"
     borderopacity="1"
     objecttolerance="10"
     gridtolerance="10"
     guidetolerance="10"
     inkscape:pageopacity="0"
     inkscape:pageshadow="2"
     inkscape:window-width="1920"
     inkscape:window-height="1002"
     id="namedview6"
     showgrid="false"
     inkscape:zoom="0.84305556"
     inkscape:cx="720"
     inkscape:cy="388.77314"
     inkscape:window-x="-8"
     inkscape:window-y="-8"
     inkscape:window-maximized="1"
     inkscape:current-layer="svg4" />
  <path
     fill="#a2d9ff"
     fill-opacity="1"
     d="m 546.55292,983.361 135.38194,3.97341 4.05487,-25.01304 -473.83661,-13.9069 4.05497,-25.01295 541.52757,15.8936 4.06605,-25.08077 -203.07284,-5.96011 4.05487,-25.01297 -135.38178,-3.9734 4.05487,-25.01296 135.38194,3.97341 4.05487,-25.01303 67.69105,1.9867 4.06589,-25.08078 -406.14567,-11.92015 4.05497,-25.013 270.76379,7.94681 4.05503,-25.01297 270.76373,7.94678 4.05503,-25.01297 -473.83669,-13.9069 4.06597,-25.08078 270.76377,7.94681 4.05503,-25.013 -338.45479,-9.93348 4.05496,-25.01298 541.52754,15.89359 4.05503,-25.01297 v 0 l 4.05503,-25.013 -473.83672,-13.90689 4.06605,-25.08076 135.38178,3.97338 4.05503,-25.01297 -135.38194,-3.97341 4.05503,-25.01297 541.52762,15.89359 4.05487,-25.01297 -541.52762,-15.89359 4.06605,-25.08077 473.83657,13.9069 4.05503,-25.01299 -473.83657,-13.90689 4.05487,-25.01299 -67.69094,-1.98671 4.05498,-25.01296 270.76383,7.94678 4.06589,-25.08076 -67.69089,-1.98671 4.05503,-25.01297 270.76373,7.94681 4.05503,-25.01299 v 0 l 4.05487,-25.01297 -203.07284,-5.96011 4.05503,-25.01296 270.76373,7.94678 4.06605,-25.08075 -406.14583,-11.92021 4.05503,-25.01298 135.38194,3.97341 4.05487,-25.01298 270.76389,7.94679 4.05487,-25.01297 -270.76373,-7.94682 4.06605,-25.08076 -67.69105,-1.98671 4.05503,-25.01297 v 0 l 4.05487,-25.01298 -270.76374,-7.946793 4.05497,-25.012993 541.52753,15.893607 4.06605,-25.080774 -473.83672,-13.906906 4.05503,-25.012974 270.76373,7.946794 4.05503,-25.012973 338.45478,9.933489 -4.05503,25.012986 v 0 l -4.05487,25.012992 v 0 l -4.06605,25.080752 v 0 l -4.05487,25.012993 v 0 l -4.05503,25.01298 v 0 l -4.05503,25.01298 v 0 l -4.06589,25.08076 v 0 l -4.05503,25.01299 v 0 l -4.05488,25.01297 v 0 l -4.05503,25.013 v 0 l -4.06589,25.08077 v 0 l -4.05503,25.01297 v 0 l -4.05503,25.01297 v 0 l -4.05487,25.01298 v 0 l -4.05503,25.01296 v 0 l -4.06589,25.08078 v 0 l -4.05503,25.01298 v 0 l -4.05503,25.01298 v 0 l -4.05487,25.01299 v 0 L 894.40503,515.79 v 0 l -4.05487,25.01297 v 0 l -4.05503,25.01298 v 0 l -4.05503,25.01299 v 0 l -4.06589,25.08076 v 0 l -4.05503,25.01298 v 0 l -4.05488,25.01298 v 0 l -4.05503,25.013 v 0 l -4.05487,25.01298 v 0 l -4.06605,25.08076 v 0 l -4.05487,25.01297 v 0 l -4.05503,25.01299 v 0 l -4.05503,25.01295 v 0 l -4.06589,25.08076 v 0 l -4.05503,25.01305 v 0 l -4.05487,25.01295 v 0 l -4.05503,25.01297 v 0 l -4.06589,25.08077 v 0 l -4.05503,25.01296 v 0 l -4.05503,25.01304 v 0 z"
     id="path2"
     style="mix-blend-mode:soft-light;fill:#1f618d;fill-opacity:1;stroke-width:1.2003" />
</svg>
