<?xml version="1.0" standalone="no"?><svg xmlns="http://www.w3.org/2000/svg" viewBox="0 0 1440 320"><path fill="#f3f4f5" fill-opacity="1" d="M0,96L17.1,106.7C34.3,117,69,139,103,128C137.1,117,171,75,206,58.7C240,43,274,53,309,69.3C342.9,85,377,107,411,138.7C445.7,171,480,213,514,192C548.6,171,583,85,617,58.7C651.4,32,686,64,720,90.7C754.3,117,789,139,823,176C857.1,213,891,267,926,261.3C960,256,994,192,1029,181.3C1062.9,171,1097,213,1131,234.7C1165.7,256,1200,256,1234,218.7C1268.6,181,1303,107,1337,69.3C1371.4,32,1406,32,1423,32L1440,32L1440,320L1422.9,320C1405.7,320,1371,320,1337,320C1302.9,320,1269,320,1234,320C1200,320,1166,320,1131,320C1097.1,320,1063,320,1029,320C994.3,320,960,320,926,320C891.4,320,857,320,823,320C788.6,320,754,320,720,320C685.7,320,651,320,617,320C582.9,320,549,320,514,320C480,320,446,320,411,320C377.1,320,343,320,309,320C274.3,320,240,320,206,320C171.4,320,137,320,103,320C68.6,320,34,320,17,320L0,320Z"></path></svg>