<?xml version="1.0" standalone="no"?><svg xmlns="http://www.w3.org/2000/svg" viewBox="0 0 1440 320"><path fill="#f3f4f5" fill-opacity="1" d="M0,96L0,160L102.9,160L102.9,32L205.7,32L205.7,64L308.6,64L308.6,128L411.4,128L411.4,256L514.3,256L514.3,0L617.1,0L617.1,96L720,96L720,160L822.9,160L822.9,320L925.7,320L925.7,128L1028.6,128L1028.6,256L1131.4,256L1131.4,256L1234.3,256L1234.3,32L1337.1,32L1337.1,32L1440,32L1440,320L1337.1,320L1337.1,320L1234.3,320L1234.3,320L1131.4,320L1131.4,320L1028.6,320L1028.6,320L925.7,320L925.7,320L822.9,320L822.9,320L720,320L720,320L617.1,320L617.1,320L514.3,320L514.3,320L411.4,320L411.4,320L308.6,320L308.6,320L205.7,320L205.7,320L102.9,320L102.9,320L0,320L0,320Z"></path></svg>