<?xml version="1.0" encoding="UTF-8" standalone="no"?>
<svg
   xmlns:dc="http://purl.org/dc/elements/1.1/"
   xmlns:cc="http://creativecommons.org/ns#"
   xmlns:rdf="http://www.w3.org/1999/02/22-rdf-syntax-ns#"
   xmlns:svg="http://www.w3.org/2000/svg"
   xmlns="http://www.w3.org/2000/svg"
   xmlns:sodipodi="http://sodipodi.sourceforge.net/DTD/sodipodi-0.dtd"
   xmlns:inkscape="http://www.inkscape.org/namespaces/inkscape"
   viewBox="0 0 1600 800"
   version="1.1"
   id="svg4"
   sodipodi:docname="footer.svg"
   width="1600"
   height="800"
   inkscape:version="1.0.2 (e86c870879, 2021-01-15, custom)">
  <metadata
     id="metadata10">
    <rdf:RDF>
      <cc:Work
         rdf:about="">
        <dc:format>image/svg+xml</dc:format>
        <dc:type
           rdf:resource="http://purl.org/dc/dcmitype/StillImage" />
        <dc:title></dc:title>
      </cc:Work>
    </rdf:RDF>
  </metadata>
  <defs
     id="defs8" />
  <sodipodi:namedview
     pagecolor="#ffffff"
     bordercolor="#666666"
     borderopacity="1"
     objecttolerance="10"
     gridtolerance="10"
     guidetolerance="10"
     inkscape:pageopacity="0"
     inkscape:pageshadow="2"
     inkscape:window-width="1920"
     inkscape:window-height="1002"
     id="namedview6"
     showgrid="false"
     inkscape:zoom="0.84305556"
     inkscape:cx="720"
     inkscape:cy="441.86278"
     inkscape:window-x="-8"
     inkscape:window-y="-8"
     inkscape:window-maximized="1"
     inkscape:current-layer="svg4" />
  <path
     fill="#a2d9ff"
     fill-opacity="1"
     d="m 0,258.21175 53.495881,72.28926 C 106.99176,404.14785 213.98353,546.69008 320.97529,493.40645 427.96705,438.08647 534.95881,186.94061 641.95058,77.318852 c 106.99176,-107.585453 213.98352,-73.6468243 320.97528,0 106.99174,72.289278 213.98354,180.892898 320.97534,289.496518 106.9917,108.60362 213.9835,217.20721 267.4794,271.50901 l 53.4958,54.30182 v 108.60362 h -53.4958 c -53.4959,0 -160.4877,0 -267.4794,0 -106.9918,0 -213.9836,0 -320.97534,0 -106.99176,0 -213.98352,0 -320.97528,0 -106.99177,0 -213.98353,0 -320.97529,0 -106.99176,0 -213.98353,0 -267.479409,0 H 0 Z"
     id="path2"
     style="stroke-width:1.94484" />
</svg>
