<?xml version="1.0" encoding="UTF-8" standalone="no"?>
<svg
   xmlns:dc="http://purl.org/dc/elements/1.1/"
   xmlns:cc="http://creativecommons.org/ns#"
   xmlns:rdf="http://www.w3.org/1999/02/22-rdf-syntax-ns#"
   xmlns:svg="http://www.w3.org/2000/svg"
   xmlns="http://www.w3.org/2000/svg"
   xmlns:sodipodi="http://sodipodi.sourceforge.net/DTD/sodipodi-0.dtd"
   xmlns:inkscape="http://www.inkscape.org/namespaces/inkscape"
   viewBox="0 0 1600 640"
   version="1.1"
   id="svg4"
   sodipodi:docname="footer-2.svg"
   inkscape:version="1.0.2 (e86c870879, 2021-01-15, custom)"
   width="1600"
   height="640">
  <metadata
     id="metadata10">
    <rdf:RDF>
      <cc:Work
         rdf:about="">
        <dc:format>image/svg+xml</dc:format>
        <dc:type
           rdf:resource="http://purl.org/dc/dcmitype/StillImage" />
        <dc:title></dc:title>
      </cc:Work>
    </rdf:RDF>
  </metadata>
  <defs
     id="defs8" />
  <sodipodi:namedview
     pagecolor="#ffffff"
     bordercolor="#666666"
     borderopacity="1"
     objecttolerance="10"
     gridtolerance="10"
     guidetolerance="10"
     inkscape:pageopacity="0"
     inkscape:pageshadow="2"
     inkscape:window-width="1920"
     inkscape:window-height="1002"
     id="namedview6"
     showgrid="false"
     inkscape:zoom="0.84305556"
     inkscape:cx="720"
     inkscape:cy="415.53757"
     inkscape:window-x="-8"
     inkscape:window-y="-8"
     inkscape:window-maximized="1"
     inkscape:current-layer="svg4" />
  <path
     fill="#f3f4f5"
     fill-opacity="1"
     d="m 0,7.530421 88.896211,7.501598 C 177.79242,22.533614 355.58484,37.53681 533.37726,40.045157 711.16969,42.459729 888.96211,32.613887 1066.7545,23.776066 1244.547,15.032019 1422.3393,7.530421 1511.2356,3.779623 l 88.8962,-3.750799 v 60.012775 h -88.8962 c -88.8963,0 -266.6886,0 -444.4811,0 -177.79239,0 -355.58481,0 -533.37724,0 -177.79242,0 -355.58484,0 -444.481049,0 H 0 Z"
     id="path2"
     style="stroke-width:0.510386" />
  <path
     fill="#a2d9ff"
     fill-opacity="1"
     d="m 3.353751,572.02594 53.285245,8.86104 c 53.285234,9.02746 159.855744,26.49997 266.426204,19.96858 106.57048,-6.781 213.14099,-37.56589 319.71148,-51.00307 106.57049,-13.18758 213.14097,-9.02748 319.71139,0 106.57053,8.86105 213.14093,22.17345 319.71153,35.48582 106.5704,13.3124 213.141,26.62478 266.4263,33.28097 l 53.2851,6.65619 v 13.31239 h -53.2851 c -53.2853,0 -159.8559,0 -266.4263,0 -106.5706,0 -213.141,0 -319.71153,0 -106.57042,0 -213.1409,0 -319.71139,0 -106.57049,0 -213.141,0 -319.71148,0 -106.57046,0 -213.14097,0 -266.426204,0 H 3.353751 Z"
     id="path2-7"
     style="stroke-width:0.679567" />
</svg>
