<?xml version="1.0" encoding="UTF-8" standalone="no"?>
<svg
   xmlns:dc="http://purl.org/dc/elements/1.1/"
   xmlns:cc="http://creativecommons.org/ns#"
   xmlns:rdf="http://www.w3.org/1999/02/22-rdf-syntax-ns#"
   xmlns:svg="http://www.w3.org/2000/svg"
   xmlns="http://www.w3.org/2000/svg"
   xmlns:sodipodi="http://sodipodi.sourceforge.net/DTD/sodipodi-0.dtd"
   xmlns:inkscape="http://www.inkscape.org/namespaces/inkscape"
   width="1579"
   height="532"
   version="1.1"
   id="svg14"
   sodipodi:docname="nos_conditions.svg"
   inkscape:version="1.0.2 (e86c870879, 2021-01-15, custom)">
  <metadata
     id="metadata20">
    <rdf:RDF>
      <cc:Work
         rdf:about="">
        <dc:format>image/svg+xml</dc:format>
        <dc:type
           rdf:resource="http://purl.org/dc/dcmitype/StillImage" />
        <dc:title />
      </cc:Work>
    </rdf:RDF>
  </metadata>
  <defs
     id="defs18">
    <style
       id="style1849">.a{fill:#f0f0f7;}.b{fill:#2c2b47;}.c{fill:#fedffd;}.d{fill:#ffc200;}.e{fill:#80beff;}.f{fill:#5a80f9;}.g{fill:#08c48e;}.h{fill:#fff;}.i{fill:#bbe7ff;}</style>
    <linearGradient
       id="sw-gradient-0"
       x1="0"
       x2="0"
       y1="1"
       y2="0">
      <stop
         stop-color="rgba(133, 146, 158, 1)"
         offset="0%"
         id="stop2" />
      <stop
         stop-color="rgba(224.314, 231.036, 237.241, 1)"
         offset="100%"
         id="stop4" />
    </linearGradient>
  </defs>
  <sodipodi:namedview
     pagecolor="#ffffff"
     bordercolor="#666666"
     borderopacity="1"
     objecttolerance="10"
     gridtolerance="10"
     guidetolerance="10"
     inkscape:pageopacity="0"
     inkscape:pageshadow="2"
     inkscape:window-width="1920"
     inkscape:window-height="1002"
     id="namedview16"
     showgrid="false"
     inkscape:zoom="1.0803515"
     inkscape:cx="2093.7756"
     inkscape:cy="272.64566"
     inkscape:window-x="-8"
     inkscape:window-y="-8"
     inkscape:window-maximized="1"
     inkscape:current-layer="svg14"
     inkscape:document-rotation="0"
     inkscape:snap-grids="false" />
  <!-- Created with Method Draw - http://github.com/duopixel/Method-Draw/ -->
  <g
     id="g8">
    <title
       id="title2">background</title>
    <rect
       fill="none"
       id="canvas_background"
       height="598"
       width="1593"
       y="-1"
       x="-1" />
    <g
       display="inline"
       overflow="visible"
       y="0"
       x="0"
       height="100%"
       width="100%"
       id="canvasGrid">
      <rect
         fill="url(#gridpattern)"
         stroke-width="0"
         y="0"
         x="0"
         height="100%"
         width="100%"
         id="rect5" />
    </g>
  </g>
  <g
     id="g12">
    <title
       id="title10">Layer 1</title>
  </g>
  <path
     style="fill:#000080;fill-opacity:0.0946502;stroke-width:1.31054;paint-order:markers stroke fill"
     d=""
     id="path295" />
  <path
     style="fill:#000080;fill-opacity:0.0946502;stroke-width:1.31054;paint-order:markers stroke fill"
     d=""
     id="path297" />
  <path
     style="fill:#000080;fill-opacity:0.0946502;stroke-width:1.31054;paint-order:markers stroke fill"
     d=""
     id="path299" />
  <path
     style="fill:#000080;fill-opacity:0.0946502;stroke-width:1.31054;paint-order:markers stroke fill"
     d=""
     id="path301" />
  <path
     style="fill:#000080;fill-opacity:0.0946502;stroke-width:1.31054;paint-order:markers stroke fill"
     d=""
     id="path303" />
  <path
     style="fill:#000080;fill-opacity:0.0946502;stroke-width:1.31054;paint-order:markers stroke fill"
     d=""
     id="path305" />
  <path
     style="fill:#000080;fill-opacity:0.0946502;stroke-width:1.31054;paint-order:markers stroke fill"
     d=""
     id="path307" />
  <path
     style="fill:#000080;fill-opacity:0.0946502;stroke-width:1.31054;paint-order:markers stroke fill"
     d=""
     id="path313" />
  <path
     style="fill:#000080;fill-opacity:0.0946502;stroke-width:1.31054;paint-order:markers stroke fill"
     d=""
     id="path315" />
  <path
     style="fill:#000080;fill-opacity:0.0946502;stroke-width:1.31054;paint-order:markers stroke fill"
     d=""
     id="path317" />
  <path
     style="fill:#000080;fill-opacity:0.0946502;stroke-width:1.31054;paint-order:markers stroke fill"
     d=""
     id="path319" />
  <path
     style="fill:#000080;fill-opacity:0.0946502;stroke-width:1.31054;paint-order:markers stroke fill"
     d=""
     id="path321" />
  <path
     style="fill:#000080;fill-opacity:0.0946502;stroke-width:1.31054;paint-order:markers stroke fill"
     d=""
     id="path323" />
  <g
     id="g1013"
     transform="matrix(0.41019616,0,0,1,2.3656642,110.43987)">
    <path
       style="opacity:1;fill:#85929e;fill-opacity:1"
       fill="url(#sw-gradient-0)"
       d="m 0,49 160,294 160,-98 160,-49 160,98 H 800 L 960,0 l 160,98 160,-49 160,294 160,98 160,-196 160,-49 160,196 h 160 l 160,-147 160,-49 160,147 160,-98 160,147 160,-49 160,49 160,-392 160,245 160,-49 V 490 H 3680 3520 3360 3200 3040 2880 2720 2560 2400 2240 2080 1920 1760 1600 1440 1280 1120 960 800 640 480 320 160 0 Z"
       id="path9" />
    <path
       style="opacity:0.9;fill:#85929e;fill-opacity:1"
       fill="url(#sw-gradient-1)"
       d="M 0,245 160,0 320,98 480,441 640,392 800,343 960,147 l 160,196 160,49 160,-294 160,147 160,147 h 160 160 l 160,-196 160,-98 160,98 160,-147 160,343 160,-294 160,196 160,-245 160,98 160,196 160,-49 V 490 H 3680 3520 3360 3200 3040 2880 2720 2560 2400 2240 2080 1920 1760 1600 1440 1280 1120 960 800 640 480 320 160 0 Z"
       id="path18" />
    <path
       style="opacity:0.8;fill:#85929e;fill-opacity:1"
       fill="url(#sw-gradient-2)"
       d="M 0,294 160,147 320,441 480,147 640,343 800,0 960,147 1120,441 h 160 l 160,-196 160,-147 160,-98 160,441 160,-196 160,98 160,-147 160,196 160,-343 160,245 160,-245 160,245 160,147 160,-147 160,49 L 3840,0 V 490 H 3680 3520 3360 3200 3040 2880 2720 2560 2400 2240 2080 1920 1760 1600 1440 1280 1120 960 800 640 480 320 160 0 Z"
       id="path27" />
    <path
       style="opacity:0.7;fill:#85929e;fill-opacity:1"
       fill="url(#sw-gradient-3)"
       d="M 0,392 160,343 320,441 480,98 h 160 160 l 160,147 160,49 h 160 L 1440,98 1600,392 1760,0 1920,441 h 160 l 160,-147 h 160 l 160,-245 160,343 160,-196 160,-49 160,49 160,49 L 3520,49 3680,196 3840,0 V 490 H 3680 3520 3360 3200 3040 2880 2720 2560 2400 2240 2080 1920 1760 1600 1440 1280 1120 960 800 640 480 320 160 0 Z"
       id="path36" />
  </g>
</svg>
